<svg aria-hidden="true" fill="currentColor" width="750" height="137" viewBox="0 0 750 137">
  <path d="M 253.8 62.4 L 240.225 62.4 L 240.225 136.425 L 224.25 136.425 L 224.25 100.8 L 195.225 100.8 L 195.225 136.425 L 179.1 136.425 L 179.1 100.8 L 176.175 100.8 A 12.316 12.316 0 0 1 172.762 100.369 Q 168.934 99.263 167.918 95.322 A 12.924 12.924 0 0 1 167.55 92.1 A 18.675 18.675 0 0 1 169.292 83.982 A 18.534 18.534 0 0 1 173.213 78.6 Q 178.875 73.125 186.975 73.125 Q 195.225 73.125 195.225 80.55 L 195.225 84.825 L 224.25 84.825 L 224.25 62.4 L 166.35 62.4 L 166.35 46.35 L 253.8 46.35 L 253.8 62.4 Z M 88.05 62.4 L 73.575 62.4 L 73.575 88.65 L 32.625 88.65 A 21.846 21.846 0 0 0 28.635 88.981 Q 21.952 90.229 21.618 96.186 A 11.426 11.426 0 0 0 21.6 96.825 A 10.857 10.857 0 0 0 22.136 100.088 Q 22.573 101.478 23.368 102.961 A 23.965 23.965 0 0 0 24.45 104.775 Q 25.19 105.701 26.894 107.894 A 1092.595 1092.595 0 0 1 27.675 108.9 A 78.099 78.099 0 0 1 35.61 103.607 Q 45.086 98.149 53.047 97.957 A 23.992 23.992 0 0 1 53.625 97.95 Q 61.65 97.95 67.8 102.675 A 20.961 20.961 0 0 1 72.802 108.095 A 18.257 18.257 0 0 1 75.525 117.975 Q 75.525 126.375 69.525 131.025 Q 60.56 138.044 50.951 138.044 A 26.557 26.557 0 0 1 49.425 138 A 43.667 43.667 0 0 1 25.332 129.215 A 60.994 60.994 0 0 1 17.775 122.625 Q 6.748 111.322 5.854 98.816 A 31.07 31.07 0 0 1 5.775 96.6 A 25.433 25.433 0 0 1 7.314 87.557 Q 9.669 81.318 15.627 77.164 A 28.538 28.538 0 0 1 16.275 76.725 A 18.618 18.618 0 0 1 18.585 75.454 Q 21.735 73.971 26.85 72.6 L 57.75 72.6 L 57.75 62.4 L 0 62.4 L 0 46.35 L 88.05 46.35 L 88.05 62.4 Z M 509.175 62.4 L 495.525 62.4 L 495.525 87.675 A 177.174 177.174 0 0 0 491.344 87.507 A 137.343 137.343 0 0 0 487.5 87.45 A 81.208 81.208 0 0 0 477.059 88.083 Q 471.729 88.775 467.232 90.225 A 41.83 41.83 0 0 0 462.75 91.95 Q 453.71 96.113 445.346 105.577 A 84.679 84.679 0 0 0 442.8 108.6 A 47.534 47.534 0 0 0 448.348 112.795 Q 451.3 114.722 454.825 116.498 A 81.945 81.945 0 0 0 456.15 117.15 Q 463.938 120.912 469.054 121.364 A 15.322 15.322 0 0 0 470.4 121.425 A 28.269 28.269 0 0 0 476.188 120.865 Q 479.979 120.072 482.925 118.158 A 17.549 17.549 0 0 0 483.525 117.75 Q 485.925 115.8 488.325 113.775 Q 491.775 111 493.875 111 A 3.116 3.116 0 0 1 495.398 111.35 Q 496.671 112.05 496.948 114.15 A 9.786 9.786 0 0 1 497.025 115.425 A 15.124 15.124 0 0 1 494.131 124.187 Q 492.558 126.453 490.129 128.593 A 36.397 36.397 0 0 1 487.35 130.8 Q 478.875 136.875 468.375 136.875 A 32.947 32.947 0 0 1 460.228 135.763 Q 452.738 133.846 443.625 128.625 A 70.813 70.813 0 0 1 436.168 123.77 Q 428.501 117.997 425.827 111.818 A 18.033 18.033 0 0 1 425.025 109.575 A 18.279 18.279 0 0 1 426.624 104.837 Q 429.1 99.703 435 93.45 A 92.162 92.162 0 0 1 449.22 81.021 A 88.364 88.364 0 0 1 449.25 81 A 41.499 41.499 0 0 1 459.042 75.996 A 50.788 50.788 0 0 1 463.8 74.55 Q 467.185 73.75 475.619 72.546 A 558.402 558.402 0 0 1 479.55 72 L 479.55 62.4 L 423 62.4 L 423 46.35 L 509.175 46.35 L 509.175 62.4 Z M 424.95 62.4 L 411.3 62.4 L 411.3 109.575 Q 411.3 122.85 402.975 129.975 Q 395.417 136.348 383.172 136.424 A 47.745 47.745 0 0 1 382.875 136.425 Q 364.356 136.425 355.429 121.145 A 47.284 47.284 0 0 1 351.6 112.65 A 24.207 24.207 0 0 1 350.93 110.124 Q 349.998 105.798 349.437 98.046 A 197.305 197.305 0 0 1 349.425 97.875 L 345.75 97.875 A 11.362 11.362 0 0 1 342.375 97.417 Q 338.665 96.263 337.694 92.198 A 14.016 14.016 0 0 1 337.35 88.95 A 16.199 16.199 0 0 1 342.449 76.875 A 20.594 20.594 0 0 1 343.35 76.05 Q 349.05 71.1 356.775 71.1 A 13.242 13.242 0 0 1 359.997 71.457 Q 364.183 72.51 364.985 76.675 A 11.379 11.379 0 0 1 365.175 78.825 L 365.175 81.975 L 395.175 81.975 L 395.175 62.4 L 336.6 62.4 L 336.6 46.35 L 424.95 46.35 L 424.95 62.4 Z M 339.375 62.4 L 325.35 62.4 L 325.35 93.675 L 321.525 93.675 Q 319.458 93.675 316.028 93.587 A 530.245 530.245 0 0 1 313.8 93.525 Q 308.866 93.378 306.463 93.375 A 79.254 79.254 0 0 0 306.375 93.375 Q 294.825 93.375 287.7 95.85 A 34.95 34.95 0 0 0 274.833 103.922 A 44.595 44.595 0 0 0 271.125 108 A 42.707 42.707 0 0 0 277.221 113.007 Q 280.29 115.109 284.002 116.992 A 73.132 73.132 0 0 0 285.075 117.525 A 56.369 56.369 0 0 0 290.179 119.75 Q 295.51 121.744 299.595 121.744 A 16.018 16.018 0 0 0 300.375 121.725 A 15.205 15.205 0 0 0 306.694 119.932 Q 308.792 118.838 310.873 117.082 A 31.122 31.122 0 0 0 312.375 115.725 Q 318.756 109.641 320.806 109.576 A 1.381 1.381 0 0 1 320.85 109.575 Q 324.902 109.575 325.244 114.104 A 11.604 11.604 0 0 1 325.275 114.975 A 14.72 14.72 0 0 1 323.468 121.899 Q 322.363 123.996 320.583 126.07 A 31.475 31.475 0 0 1 318.825 127.95 A 38.472 38.472 0 0 1 313.719 132.211 Q 310.725 134.269 307.732 135.298 A 18.644 18.644 0 0 1 303.075 136.275 Q 301.725 136.35 300.3 136.35 A 53.918 53.918 0 0 1 279.626 132.112 A 67.603 67.603 0 0 1 272.7 128.775 Q 257.925 120.6 253.275 108.6 Q 255.807 98.269 270.011 87.438 A 103.143 103.143 0 0 1 272.85 85.35 A 78.077 78.077 0 0 1 271.355 83.808 Q 268.894 81.207 265.125 76.875 A 37.056 37.056 0 0 1 260.502 68.409 A 47.686 47.686 0 0 1 258.6 62.4 L 251.55 62.4 L 251.55 46.35 L 339.375 46.35 L 339.375 62.4 Z M 166.95 62.4 L 153.225 62.4 L 153.225 111.375 A 40.543 40.543 0 0 1 152.608 118.661 Q 151.845 122.835 150.138 126.189 A 22.423 22.423 0 0 1 148.65 128.7 A 17.129 17.129 0 0 1 136.161 136.373 A 24.318 24.318 0 0 1 132.975 136.575 A 24.49 24.49 0 0 1 125.982 135.492 Q 123.055 134.621 119.943 133.049 A 49.328 49.328 0 0 1 117.075 131.475 A 58.958 58.958 0 0 1 105.197 122.262 A 69.176 69.176 0 0 1 102.15 119.025 Q 94.832 110.747 91.977 103.222 A 26.211 26.211 0 0 1 90.15 93.9 Q 90.15 86.25 95.85 81 A 19.528 19.528 0 0 1 106.042 76.121 A 27.25 27.25 0 0 1 110.625 75.75 L 137.25 75.75 L 137.25 62.4 L 85.875 62.4 L 85.875 46.35 L 166.95 46.35 L 166.95 62.4 Z M 143.775 34.275 A 14.742 14.742 0 0 0 142.821 32.251 Q 142.283 31.293 141.56 30.272 A 30.235 30.235 0 0 0 140.625 29.025 A 1.863 1.863 0 0 0 139.879 28.514 Q 137.977 27.685 132 27.45 A 4862.205 4862.205 0 0 1 121.013 27.282 A 6042.645 6042.645 0 0 1 109.2 27.075 Q 104.354 26.415 101.305 21.081 A 19.783 19.783 0 0 1 101.175 20.85 A 20.13 20.13 0 0 1 98.459 10.668 A 22.193 22.193 0 0 1 98.475 9.825 A 17.132 17.132 0 0 1 99.094 6.038 A 13.613 13.613 0 0 1 100.5 2.775 A 9.61 9.61 0 0 1 101.381 1.561 Q 102.731 0 104.25 0 Q 106.479 0 107.031 1.893 A 4.393 4.393 0 0 1 107.175 2.625 Q 107.4 5.55 107.625 8.4 A 13.378 13.378 0 0 0 108.357 10.553 Q 108.852 11.661 109.513 12.46 A 5.644 5.644 0 0 0 111.225 13.875 A 21.413 21.413 0 0 0 113.15 14.192 Q 115.322 14.457 118.298 14.474 A 72.323 72.323 0 0 0 118.725 14.475 A 94.658 94.658 0 0 0 119.803 14.468 Q 121.631 14.447 124.725 14.363 A 491.342 491.342 0 0 1 126.661 14.314 Q 129.375 14.25 130.95 14.25 A 54.399 54.399 0 0 1 137.113 14.572 Q 146.277 15.621 149.55 20.1 A 11.374 11.374 0 0 1 151.462 24.474 Q 152.038 27.148 151.65 30.525 Q 151.35 33.675 150 36.45 Q 148.275 40.2 145.875 39.9 Q 145.2 39.825 144.675 38.025 A 1005.134 1005.134 0 0 0 144.48 37.196 Q 143.898 34.718 143.792 34.331 A 1.248 1.248 0 0 0 143.775 34.275 Z M 137.25 113.625 L 137.25 91.725 L 111.525 91.725 A 11.88 11.88 0 0 0 109.766 91.844 Q 107.532 92.18 106.759 93.469 A 3.113 3.113 0 0 0 106.35 95.1 A 5.165 5.165 0 0 0 106.494 96.273 Q 106.62 96.817 106.86 97.406 A 10.149 10.149 0 0 0 107.1 97.95 Q 110.025 104.175 114.9 109.35 A 72.088 72.088 0 0 0 119.703 114.068 Q 127.238 120.75 132.75 120.75 A 3.754 3.754 0 0 0 136.326 118.62 Q 137.25 116.854 137.25 113.625 Z M 395.175 110.325 L 395.175 97.875 L 365.4 97.875 A 71.711 71.711 0 0 0 365.855 103.268 Q 366.684 109.858 368.7 113.4 A 13.196 13.196 0 0 0 378.084 119.921 A 21.872 21.872 0 0 0 382.275 120.3 Q 394.272 120.3 395.112 111.674 A 13.912 13.912 0 0 0 395.175 110.325 Z M 309.525 77.7 L 309.525 62.4 L 275.325 62.4 Q 276.621 65.875 278.332 68.193 A 14.794 14.794 0 0 0 279.3 69.375 Q 285.675 76.425 291.9 77.7 L 309.525 77.7 Z M 51.825 112.35 A 11.685 11.685 0 0 0 48.426 113.419 Q 44.687 115.19 40.125 119.7 A 83.996 83.996 0 0 0 43.503 121.128 Q 48.623 123.15 51.15 123.15 A 21.93 21.93 0 0 0 54.132 122.966 Q 59.925 122.166 59.925 117.9 A 6.214 6.214 0 0 0 59.901 117.37 A 7.951 7.951 0 0 0 59.85 116.925 Q 59.042 112.37 53.771 112.277 A 12.563 12.563 0 0 0 53.55 112.275 A 20.102 20.102 0 0 0 52.27 112.318 A 23.02 23.02 0 0 0 51.825 112.35 Z" />
</svg>
